# This file uses centimeters as units for non-parametric coordinates.

mtllib chair.mtl
g default
v -1.455018 -0.493620 1.455017
v 0.000004 -0.493620 1.455017
v 1.455018 -0.493620 1.455017
v -1.455018 -0.159271 1.455017
v 0.000004 -0.159271 1.455017
v 1.455018 -0.159271 1.455017
v -1.455018 -0.159271 -0.000001
v 1.455018 -0.159271 -0.000001
v -1.455018 -0.405575 -1.455017
v 0.000004 -0.405575 -1.455017
v 1.455018 -0.405575 -1.455017
v -1.455018 -0.493620 -1.455017
v 0.000004 -0.493620 -1.455017
v 1.455018 -0.493620 -1.455017
v -1.455018 -0.493620 -0.000001
v 0.000004 -0.493620 -0.000001
v 1.455018 -0.493620 -0.000001
v 0.000004 -0.493620 1.116900
v -1.455018 -0.493620 1.116900
v -1.455018 -0.159271 1.116900
v 1.455018 -0.159271 1.116900
v 1.455018 -0.493620 1.116900
v 0.000004 -0.493620 -1.116902
v -1.455018 -0.493620 -1.116902
v -1.455018 -0.159271 -1.116902
v 1.455018 -0.159271 -1.116902
v 1.455018 -0.493620 -1.116902
v 1.165740 -0.493620 -1.116902
v 1.165740 -0.493620 -1.455017
v 1.165740 -0.405575 -1.455017
v 1.165740 -0.159271 1.455017
v 1.165740 -0.493620 1.455017
v 1.165740 -0.493620 1.116900
v 1.165740 -0.493620 -0.000001
v -1.165740 -0.493620 -1.116902
v -1.165740 -0.493620 -1.455017
v -1.165740 -0.405575 -1.455017
v -1.165740 -0.159271 1.455017
v -1.165740 -0.493620 1.455017
v -1.165740 -0.493620 1.116900
v -1.165740 -0.493620 -0.000001
v 1.165740 -3.449585 -1.455017
v 1.455018 -3.449585 -1.455017
v 1.455018 -3.449585 -1.116902
v 1.165740 -3.449585 -1.116902
v 1.455018 -3.449585 1.116900
v 1.165740 -3.449585 1.116900
v 1.455018 -3.449585 1.455017
v 1.165740 -3.449585 1.455017
v -1.455018 -3.449585 -1.455017
v -1.165740 -3.449585 -1.455017
v -1.165740 -3.449585 -1.116902
v -1.455018 -3.449585 -1.116902
v -1.165740 -3.449585 1.116900
v -1.455018 -3.449585 1.116900
v -1.165740 -3.449585 1.455017
v -1.455018 -3.449585 1.455017
v 0.000004 3.449585 -1.455017
v -1.165740 3.449585 -1.455017
v 1.455018 3.449585 -1.116902
v 1.455018 3.449585 -1.455017
v 1.165740 3.449585 -1.455017
v -1.455018 3.449585 -1.116902
v -1.455018 3.449585 -1.455017
v -1.002268 0.019672 0.983983
v 0.000004 0.019669 0.983983
v 0.000004 0.019669 0.023705
v -1.002268 0.019672 0.023705
v 1.002268 0.019669 0.983983
v 1.250979 0.019669 0.983983
v 1.250979 0.019669 0.023705
v 1.002268 0.019669 0.023705
v -1.002268 0.019672 1.274686
v 0.000004 0.019672 1.274686
v 1.002268 0.019669 1.274686
v 1.250979 0.019669 1.274686
v 0.000004 0.019669 -0.936572
v -1.002268 0.019672 -0.936572
v 1.250979 0.019669 -0.936572
v 1.002268 0.019669 -0.936572
v -1.250979 0.019672 0.023705
v -1.250979 0.019672 -0.936572
v -1.250979 0.019672 0.983983
v -1.250979 0.019672 1.274686
v -0.000343 0.303856 -0.817303
v 0.000004 -0.069809 -1.026747
v 1.089219 -0.075508 -1.032492
v 1.222330 -0.159271 -1.116902
v 0.973481 0.298157 -0.817303
v -1.091435 -0.077934 -1.034935
v -0.979015 0.288010 -0.817303
v -1.222548 -0.159271 -1.116902
v -1.217035 3.449585 -1.116902
v -0.972527 3.275055 -0.817303
v -1.165740 3.449585 -1.183400
v 0.000004 3.449585 -1.185962
v -0.000343 3.275635 -0.817303
v 0.973640 3.277618 -0.817303
v 1.217039 3.449585 -1.116902
v 1.165740 3.449585 -1.183400
vt 0.228160 0.612087
vt 0.238032 0.612087
vt 0.247905 0.612087
vt 0.228160 0.631833
vt 0.238032 0.631833
vt 0.247905 0.631833
vt 0.228160 0.641706
vt 0.150881 0.657663
vt 0.247905 0.641706
vt 0.228160 0.651579
vt 0.238032 0.651579
vt 0.247905 0.651579
vt 0.228160 0.671324
vt 0.238032 0.671324
vt 0.247905 0.671324
vt 0.228160 0.681197
vt 0.238032 0.681197
vt 0.247905 0.681197
vt 0.228160 0.691070
vt 0.238032 0.691070
vt 0.247905 0.691070
vt 0.267651 0.612087
vt 0.257778 0.612087
vt 0.267651 0.631833
vt 0.257778 0.631833
vt 0.208414 0.612087
vt 0.218287 0.612087
vt 0.208414 0.631833
vt 0.218287 0.631833
vt 0.238032 0.688776
vt 0.225865 0.612087
vt 0.228160 0.688776
vt 0.225865 0.631833
vt 0.228160 0.634127
vt 0.150881 0.650085
vt 0.247905 0.634127
vt 0.250199 0.631833
vt 0.247905 0.688776
vt 0.250199 0.612087
vt 0.238032 0.673619
vt 0.210708 0.612087
vt 0.228160 0.673619
vt 0.210708 0.631833
vt 0.265357 0.631833
vt 0.247905 0.673619
vt 0.265357 0.612087
vt 0.245942 0.673619
vt 0.245942 0.671324
vt 0.245942 0.651579
vt 0.158791 0.657663
vt 0.158791 0.650085
vt 0.245942 0.631833
vt 0.245942 0.612087
vt 0.245942 0.691070
vt 0.245942 0.688776
vt 0.245942 0.681197
vt 0.230122 0.673619
vt 0.230122 0.671324
vt 0.230122 0.651579
vt 0.142971 0.657663
vt 0.142971 0.650085
vt 0.230122 0.631833
vt 0.230122 0.612087
vt 0.230122 0.691070
vt 0.230122 0.688776
vt 0.230122 0.681197
vt 0.245942 0.671324
vt 0.247905 0.671324
vt 0.247905 0.673619
vt 0.245942 0.673619
vt 0.245942 0.688776
vt 0.247905 0.688776
vt 0.247905 0.691070
vt 0.245942 0.691070
vt 0.228160 0.671324
vt 0.230122 0.671324
vt 0.230122 0.673619
vt 0.228160 0.673619
vt 0.228160 0.688776
vt 0.230122 0.688776
vt 0.230122 0.691070
vt 0.228160 0.691070
vt 0.228160 0.649284
vt 0.160754 0.650085
vt 0.247905 0.641706
vt 0.142971 0.647790
vt 0.238032 0.631833
vt 0.158791 0.647790
vt 0.247905 0.631833
vt 0.247905 0.649284
vt 0.228160 0.649284
vt 0.228160 0.641706
vt 0.228160 0.634127
vt 0.141008 0.647790
vt 0.247905 0.649284
vt 0.228160 0.649284
vt 0.230122 0.649284
vt 0.230122 0.651579
vt 0.228160 0.651579
vt 0.247905 0.651579
vt 0.247905 0.649284
vt 0.245942 0.649284
vt 0.230122 0.649284
vt 0.245618 0.649284
vt 0.156684 0.624735
vt 0.140148 0.624735
vt 0.140851 0.624735
vt 0.156016 0.624735
vt 0.245942 0.649736
vt 0.140516 0.625186
vt 0.238032 0.649753
vt 0.245942 0.651579
vt 0.238032 0.651579
vt 0.238032 0.649284
vt 0.238032 0.649284
vt 0.245942 0.649284
vt 0.148426 0.624735
vt 0.148426 0.624735
vt 0.156704 0.624735
vt 0.140805 0.624735
vt 0.140168 0.624735
vt 0.148426 0.624735
vt 0.148426 0.624735
vt 0.148426 0.624735
vt 0.238032 0.649284
vt 0.148426 0.624735
vt 0.148426 0.624735
vt 0.156336 0.625186
vt 0.156336 0.625186
vt 0.148426 0.625203
vt 0.148426 0.625203
vt 0.156016 0.624735
vt 0.156016 0.624735
vt 0.156016 0.624735
vt 0.140516 0.625186
vt 0.230122 0.649736
vt 0.140851 0.624735
vt 0.140851 0.624735
vt 0.140851 0.624735
vt 0.229774 0.649284
vt 0.140168 0.624735
vt 0.229754 0.649284
vt 0.140148 0.624735
vt 0.140805 0.624735
vt 0.140805 0.624735
vt 0.140805 0.624735
vt 0.246290 0.649284
vt 0.156684 0.624735
vt 0.245618 0.649284
vt 0.156012 0.624735
vt 0.156012 0.624735
vt 0.246310 0.649284
vt 0.246310 0.649284
vt 0.140516 0.624735
vt 0.140516 0.624735
vt 0.148426 0.624735
vt 0.238032 0.649284
vt 0.245942 0.649284
vt 0.245942 0.649284
vt 0.228160 0.631833
vt 0.141008 0.650085
vt 0.141008 0.650085
vt 0.142971 0.647790
vt 0.230122 0.631833
vt 0.141008 0.657663
vt 0.141008 0.657663
vt 0.142971 0.650085
vt 0.142971 0.650085
vt 0.142971 0.650085
vt 0.141008 0.665242
vt 0.142971 0.665242
vt 0.142971 0.665242
vt 0.142971 0.657663
vt 0.142971 0.657663
vt 0.142971 0.657663
vt 0.150881 0.647790
vt 0.150881 0.647790
vt 0.158791 0.647790
vt 0.245942 0.631833
vt 0.150881 0.650085
vt 0.150881 0.650085
vt 0.150881 0.650085
vt 0.158791 0.650085
vt 0.158791 0.650085
vt 0.158791 0.650085
vt 0.150881 0.665242
vt 0.150881 0.665242
vt 0.158791 0.665242
vt 0.158791 0.665242
vt 0.150881 0.657663
vt 0.150881 0.657663
vt 0.150881 0.657663
vt 0.158791 0.657663
vt 0.158791 0.657663
vt 0.158791 0.657663
vt 0.160754 0.665242
vt 0.160754 0.657663
vt 0.160754 0.657663
vt 0.160754 0.647790
vt 0.160754 0.650085
vt 0.247905 0.634127
vn 0.000000 0.000000 1.000000
vn 0.000000 0.000000 1.000000
vn 0.000000 0.000000 1.000000
vn 0.000000 0.000000 1.000000
vn 0.000000 0.000000 1.000000
vn 0.000000 0.000000 1.000000
vn 0.000000 0.000000 1.000000
vn 0.000000 0.000000 1.000000
vn 0.000003 1.000000 -0.000001
vn 0.000002 1.000000 -0.000002
vn 0.000002 1.000000 0.000000
vn 0.000003 1.000000 0.000000
vn 0.000000 1.000000 -0.000001
vn 0.000000 1.000000 0.000000
vn 0.000000 1.000000 0.000000
vn 0.000000 1.000000 0.000000
vn 0.000000 0.000000 -1.000000
vn 0.000000 0.000000 -1.000000
vn 0.000000 0.000000 -1.000000
vn 0.000000 0.000000 -1.000000
vn 0.000000 0.000000 -1.000000
vn 0.000000 0.000000 -1.000000
vn 0.000000 0.000000 -1.000000
vn 0.000000 0.000000 -1.000000
vn 0.000000 -1.000000 0.000000
vn 0.000000 -1.000000 0.000000
vn 0.000000 -1.000000 0.000000
vn 0.000000 -1.000000 0.000000
vn 0.000000 -1.000000 0.000000
vn 0.000000 -1.000000 0.000000
vn 0.000000 -1.000000 0.000000
vn 0.000000 -1.000000 0.000000
vn 0.000000 -1.000000 0.000000
vn 0.000000 -1.000000 0.000000
vn 0.000000 -1.000000 0.000000
vn 0.000000 -1.000000 0.000000
vn 0.000000 -1.000000 0.000000
vn 0.000000 -1.000000 0.000000
vn 0.000000 -1.000000 0.000000
vn 0.000000 -1.000000 0.000000
vn 1.000000 0.000000 0.000000
vn 1.000000 0.000000 0.000000
vn 1.000000 0.000000 0.000000
vn 1.000000 0.000000 0.000000
vn 1.000000 0.000000 0.000000
vn 1.000000 0.000000 0.000000
vn 1.000000 0.000000 0.000000
vn 1.000000 0.000000 0.000000
vn -1.000000 0.000000 0.000000
vn -1.000000 0.000000 0.000000
vn -1.000000 0.000000 0.000000
vn -1.000000 0.000000 0.000000
vn -1.000000 0.000000 0.000000
vn -1.000000 0.000000 0.000000
vn -1.000000 0.000000 0.000000
vn -1.000000 0.000000 0.000000
vn 0.000000 -1.000000 0.000000
vn 0.000000 -1.000000 0.000000
vn -1.000000 0.000000 0.000000
vn -1.000000 0.000000 0.000000
vn 0.000002 1.000000 -0.000005
vn 0.000002 1.000000 -0.000007
vn 0.000002 1.000000 -0.000005
vn 0.000000 1.000000 0.000000
vn 1.000000 0.000000 0.000000
vn 1.000000 0.000000 0.000000
vn 0.000000 -1.000000 0.000000
vn 0.000000 -1.000000 0.000000
vn 0.000000 -1.000000 0.000000
vn 0.000000 -1.000000 0.000000
vn 0.000002 1.000000 0.000000
vn 0.000003 1.000000 0.000000
vn 0.000000 1.000000 0.000000
vn 0.000000 1.000000 0.000000
vn 0.000000 -1.000000 0.000000
vn 0.000000 -1.000000 0.000000
vn 0.000000 -1.000000 0.000000
vn 0.000000 -1.000000 0.000000
vn 0.000000 -1.000000 0.000000
vn 0.000000 -1.000000 0.000000
vn 0.000000 -1.000000 0.000000
vn 0.000000 -1.000000 0.000000
vn 0.000000 0.000000 -1.000000
vn 0.000000 0.000000 -1.000000
vn 0.000000 1.000000 0.000000
vn 0.000000 1.000000 0.000000
vn 0.000000 1.000000 0.000000
vn 0.000000 1.000000 0.000000
vn 0.000000 1.000000 0.000000
vn 0.000000 1.000000 0.000000
vn 0.000000 1.000000 0.000000
vn 0.000000 1.000000 0.000000
vn 0.000000 1.000000 0.000000
vn 0.000000 0.000000 1.000000
vn 0.000000 0.000000 1.000000
vn 0.000000 -1.000000 0.000000
vn 0.000000 -1.000000 0.000000
vn 0.000000 -1.000000 0.000000
vn 0.000000 -1.000000 0.000000
vn 0.000000 -1.000000 0.000000
vn 0.000000 -1.000000 0.000000
vn 0.000000 -1.000000 0.000000
vn 0.000000 0.000000 -1.000000
vn 0.000000 0.000000 -1.000000
vn 0.000000 0.000000 -1.000000
vn 0.000000 0.000000 -1.000000
vn 1.000000 0.000000 0.000000
vn 1.000000 0.000000 0.000000
vn 1.000000 0.000000 0.000000
vn 1.000000 0.000000 0.000000
vn 0.000000 0.000000 1.000000
vn 0.000000 0.000000 1.000000
vn 0.000000 0.000000 1.000000
vn 0.000000 0.000000 1.000000
vn -1.000000 0.000000 0.000000
vn -1.000000 0.000000 0.000000
vn -1.000000 0.000000 0.000000
vn -1.000000 0.000000 0.000000
vn 0.000000 0.000000 -1.000000
vn 0.000000 0.000000 -1.000000
vn 0.000000 0.000000 -1.000000
vn 0.000000 0.000000 -1.000000
vn 1.000000 0.000000 0.000000
vn 1.000000 0.000000 0.000000
vn 1.000000 0.000000 0.000000
vn 1.000000 0.000000 0.000000
vn 0.000000 0.000000 1.000000
vn 0.000000 0.000000 1.000000
vn 0.000000 0.000000 1.000000
vn 0.000000 0.000000 1.000000
vn -1.000000 0.000000 0.000000
vn -1.000000 0.000000 0.000000
vn -1.000000 0.000000 0.000000
vn -1.000000 0.000000 0.000000
vn 0.000000 0.000000 -1.000000
vn 0.000000 0.000000 -1.000000
vn 0.000000 0.000000 -1.000000
vn 0.000000 0.000000 -1.000000
vn 1.000000 0.000000 0.000000
vn 1.000000 0.000000 0.000000
vn 1.000000 0.000000 0.000000
vn 1.000000 0.000000 0.000000
vn 0.000000 0.000000 1.000000
vn 0.000000 0.000000 1.000000
vn 0.000000 0.000000 1.000000
vn 0.000000 0.000000 1.000000
vn -1.000000 0.000000 0.000000
vn -1.000000 0.000000 0.000000
vn -1.000000 0.000000 0.000000
vn -1.000000 0.000000 0.000000
vn 0.000000 0.000000 -1.000000
vn 0.000000 0.000000 -1.000000
vn 0.000000 0.000000 -1.000000
vn 0.000000 0.000000 -1.000000
vn 1.000000 0.000000 0.000000
vn 1.000000 0.000000 0.000000
vn 1.000000 0.000000 0.000000
vn 1.000000 0.000000 0.000000
vn 0.000000 0.000000 1.000000
vn 0.000000 0.000000 1.000000
vn 0.000000 0.000000 1.000000
vn 0.000000 0.000000 1.000000
vn -1.000000 0.000000 0.000000
vn -1.000000 0.000000 0.000000
vn -1.000000 0.000000 0.000000
vn -1.000000 0.000000 0.000000
vn 0.000000 0.000000 -1.000000
vn 0.000000 0.000000 -1.000000
vn 0.000000 0.000000 -1.000000
vn 0.000000 0.000000 -1.000000
vn 0.448507 0.000349 0.893780
vn 0.342630 0.000267 0.939470
vn 0.000000 0.000000 1.000000
vn 0.000000 0.000000 1.000000
vn 1.000000 0.000000 0.000000
vn 1.000000 0.000000 0.000000
vn 1.000000 0.000000 0.000000
vn 1.000000 0.000000 0.000000
vn 0.000000 0.000000 -1.000000
vn 0.000000 0.000000 -1.000000
vn 0.000000 0.000000 -1.000000
vn 0.000000 0.000000 -1.000000
vn 0.000000 0.000000 -1.000000
vn 0.000000 0.000000 -1.000000
vn 0.000000 0.000000 -1.000000
vn 0.000000 0.000000 -1.000000
vn 0.000000 0.000000 1.000000
vn -0.345824 0.000629 0.938299
vn -0.449318 0.000817 0.893372
vn 0.000000 0.000000 1.000000
vn 0.000000 0.000000 -1.000000
vn 0.000000 0.000000 -1.000000
vn 0.000000 0.000000 -1.000000
vn 0.000000 0.000000 -1.000000
vn -1.000000 0.000000 0.000000
vn -1.000000 0.000000 0.000000
vn -1.000000 0.000000 0.000000
vn -1.000000 0.000000 0.000000
vn 0.659351 0.751836 0.000000
vn 0.659351 0.751836 0.000000
vn 0.659351 0.751836 0.000000
vn 0.659351 0.751836 0.000000
vn 0.000000 0.709832 0.704371
vn 0.000000 0.709832 0.704371
vn 0.000000 0.709832 0.704371
vn 0.000000 0.709832 0.704371
vn 0.000000 0.709840 0.704363
vn 0.000000 0.709840 0.704363
vn 0.000000 0.709840 0.704363
vn 0.000000 0.709840 0.704363
vn 0.659351 0.751836 0.000000
vn 0.659351 0.751836 0.000000
vn 0.659351 0.751836 0.000000
vn 0.659351 0.751836 0.000000
vn 0.659350 0.751836 0.000000
vn 0.659351 0.751836 0.000000
vn 0.659350 0.751836 0.000000
vn 0.659350 0.751836 0.000000
vn 0.000005 0.709840 -0.704363
vn 0.000005 0.709840 -0.704363
vn 0.000003 0.709844 -0.704359
vn 0.000001 0.709847 -0.704356
vn 0.000005 0.709840 -0.704363
vn 0.000001 0.709836 0.704367
vn 0.000001 0.709836 0.704367
vn 0.000001 0.709836 0.704367
vn 0.000001 0.709836 0.704367
vn -0.659358 0.751829 0.000000
vn -0.659358 0.751829 0.000000
vn -0.659358 0.751829 0.000000
vn -0.659358 0.751829 0.000000
vn -0.659359 0.751829 0.000000
vn -0.659359 0.751829 0.000000
vn -0.659359 0.751829 0.000000
vn -0.659359 0.751829 0.000000
vn 0.000000 0.709832 0.704371
vn 0.000000 0.709832 0.704371
vn 0.000000 0.709832 0.704371
vn 0.000000 0.709832 0.704371
vn -0.659359 0.751829 0.000000
vn -0.659359 0.751829 0.000000
vn -0.659359 0.751829 0.000000
vn -0.659359 0.751829 0.000000
vn 0.000000 0.709833 -0.704370
vn -0.000000 0.709830 -0.704373
vn -0.000000 0.709830 -0.704373
vn -0.000000 0.709830 -0.704373
vn 0.000001 0.709836 -0.704367
vn 0.000000 1.000000 -0.000000
vn 0.000000 1.000000 -0.000001
vn 0.000000 1.000000 -0.000001
vn 0.000000 1.000000 -0.000001
vn 0.000000 1.000000 -0.000000
vn 0.001024 -0.497181 0.867646
vn 0.001028 -0.497190 0.867641
vn -0.000309 -0.494058 0.869429
vn -0.000309 -0.494058 0.869429
vn 0.002369 -0.500324 0.865835
vn 0.002369 -0.500324 0.865835
vn 0.346479 0.000270 0.938058
vn 0.303812 0.000237 0.952732
vn -0.348213 0.000634 0.937415
vn -0.303849 0.000553 0.952720
vn 0.000268 0.903557 0.428468
vn 0.000268 0.903557 0.428468
vn -0.000539 0.904221 0.427065
vn -0.000540 0.904222 0.427063
vn -0.001349 0.904883 0.425658
vn -0.001349 0.904883 0.425658
vn 0.000000 1.000000 0.000000
vn 0.000000 1.000000 0.000000
vn 0.000000 0.709843 -0.704360
vn 0.000000 0.709843 -0.704360
vn -0.000000 0.000000 1.000000
vn -0.000000 0.000000 1.000000
vn 0.292008 -0.407774 0.865131
vn 0.292008 -0.407774 0.865131
vn 0.292008 -0.407774 0.865131
vn -0.272680 -0.428521 0.861403
vn -0.272680 -0.428521 0.861403
vn -0.272680 -0.428521 0.861403
vn 0.332941 0.907299 0.256823
vn 0.332941 0.907299 0.256823
vn 0.332941 0.907299 0.256823
vn -0.329522 0.909282 0.254206
vn -0.329522 0.909282 0.254206
vn -0.329522 0.909282 0.254206
s 1
g chair
usemtl lambert2SG
f 2/2/1 5/5/2 38/62/3 39/63/4
f 3/3/5 6/6/6 31/52/7 32/53/8
s 2
f 65/167/9 66/181/10 67/190/11 68/174/12
f 69/183/13 70/200/14 71/197/15 72/194/16
s 4
f 10/11/17 13/14/18 36/58/19 37/59/20
f 11/12/21 14/15/22 29/48/23 30/49/24
s 5
f 36/58/25 13/14/26 23/40/27 35/57/28
s off
f 42/67/29 43/68/30 44/69/31 45/70/32
s 5
f 41/66/33 16/17/34 18/30/35 40/65/36
f 34/56/37 17/18/38 22/38/39 33/55/40
s 7
f 26/44/41 27/46/42 14/22/43 11/24/44
f 21/37/45 22/39/46 17/23/47 8/25/48
s 9
f 24/41/49 25/43/50 9/28/51 12/26/52
f 19/31/53 20/33/54 7/29/55 15/27/56
s 5
f 40/65/36 18/30/35 2/20/57 39/64/58
s 9
f 1/1/59 4/4/60 20/33/54 19/31/53
s 2
f 73/163/61 74/176/62 66/180/10 65/168/9
f 75/178/63 76/199/64 70/84/14 69/184/13
s 7
f 3/3/65 22/39/46 21/37/45 6/6/66
s off
f 47/71/67 46/72/68 48/73/69 49/74/70
s 5
f 41/66/33 35/57/28 23/40/27 16/17/34
s 9
f 15/27/56 7/29/55 25/43/50 24/41/49
s 2
f 68/173/12 67/191/11 77/187/71 78/171/72
f 72/193/16 71/198/15 79/196/73 80/188/74
s 7
f 17/23/47 27/46/42 26/44/41 8/25/48
s 5
f 34/56/37 28/47/75 27/45/76 17/18/38
f 13/14/26 29/48/77 28/47/75 23/40/27
s 4
f 29/48/23 13/14/18 10/11/17 30/49/24
s 2
f 67/192/11 72/50/16 80/189/74 77/186/71
f 66/182/10 69/51/13 72/195/16 67/8/11
f 74/177/62 75/88/63 69/185/13 66/35/10
s 1
f 31/52/7 5/5/2 2/2/1 32/53/8
s 5
f 18/30/35 33/55/40 32/54/78 2/20/57
f 16/17/34 34/56/37 33/55/40 18/30/35
f 23/40/27 28/47/75 34/56/37 16/17/34
s off
f 50/75/79 51/76/80 52/77/81 53/78/82
s 4
f 36/58/19 12/13/83 9/10/84 37/59/20
s 11
f 63/83/85 93/140/86 95/136/87 59/98/88 64/99/89
s 2
f 81/165/90 68/60/12 78/172/72 82/170/91
f 83/161/92 65/61/9 68/175/12 81/166/90
f 84/94/93 73/86/61 65/169/9 83/162/92
s 1
f 38/62/3 4/4/94 1/1/95 39/63/4
s off
f 55/79/96 54/80/97 56/81/98 57/82/99
s 5
f 15/16/100 41/66/33 40/65/36 19/32/101
f 24/42/102 35/57/28 41/66/33 15/16/100
s off
f 29/48/103 14/15/104 43/68/105 42/67/106
f 14/15/107 27/45/108 44/69/109 43/68/110
f 27/45/111 28/47/112 45/70/113 44/69/114
f 28/47/115 29/48/116 42/67/117 45/70/118
f 33/55/119 22/38/120 46/72/121 47/71/122
f 22/38/123 3/21/124 48/73/125 46/72/126
f 3/21/127 32/54/128 49/74/129 48/73/130
f 32/54/131 33/55/132 47/71/133 49/74/134
f 12/13/135 36/58/136 51/76/137 50/75/138
f 36/58/139 35/57/140 52/77/141 51/76/142
f 35/57/143 24/42/144 53/78/145 52/77/146
f 24/42/147 12/13/148 50/75/149 53/78/150
f 19/32/151 40/65/152 54/80/153 55/79/154
f 40/65/155 39/64/156 56/81/157 54/80/158
f 39/64/159 1/19/160 57/82/161 56/81/162
f 1/19/163 19/32/164 55/79/165 57/82/166
f 10/11/167 37/59/168 59/98/169 58/113/170
s 12
f 99/147/171 88/152/172 26/95/173 60/101/174
s off
f 26/95/175 11/12/176 61/100/177 60/101/178
f 11/12/179 30/49/180 62/112/181 61/100/182
f 30/49/183 10/11/184 58/113/185 62/112/186
s 12
f 25/96/187 92/142/188 93/140/189 63/83/190
s off
f 37/59/191 9/10/192 64/99/193 59/98/194
f 9/10/195 25/96/196 63/83/197 64/99/198
f 21/36/199 8/9/200 71/85/201 70/201/202
f 38/62/203 5/5/204 74/87/205 73/164/206
f 31/52/207 6/6/208 76/89/209 75/179/210
f 6/6/211 21/36/212 70/201/213 76/89/214
f 8/9/215 26/95/216 79/90/217 71/85/218
s 14
f 26/95/219 88/152/220 87/158/221 80/116/222 79/90/223
s off
f 5/5/224 31/52/225 75/179/226 74/87/227
f 25/96/228 7/7/229 81/92/230 82/91/231
f 7/7/232 20/34/233 83/93/234 81/92/235
f 4/4/236 38/62/237 73/164/238 84/160/239
f 20/34/240 4/4/241 84/160/242 83/93/243
s 14
f 90/103/244 92/142/245 25/96/246 82/91/247 78/97/248
s 11
f 100/109/249 99/147/250 60/101/251 61/100/252 62/112/253
s 17
f 85/125/254 86/157/255 87/159/256 89/149/257
f 86/156/255 85/126/254 91/145/258 90/155/259
s 12
f 89/151/260 88/119/172 99/148/171 98/132/261
f 92/143/188 91/120/262 94/137/263 93/121/189
s 18
f 95/110/264 94/139/265 97/122/266 96/131/267
f 96/130/267 97/123/266 98/134/268 100/129/269
s 11
f 95/136/87 96/111/270 58/113/271 59/98/88
f 96/111/270 100/109/249 62/112/253 58/113/271
s 14
f 86/115/272 90/103/244 78/97/248 77/114/273
f 87/158/221 86/115/272 77/114/273 80/116/222
s 12
f 85/118/274 89/150/260 98/133/261 97/124/275
f 97/117/275 94/107/263 91/144/262 85/127/274
s off
f 87/102/276 88/153/277 89/104/278
f 90/154/279 91/146/280 92/106/281
f 93/141/282 94/138/283 95/135/284
f 98/108/285 99/105/286 100/128/287
