# This file uses centimeters as units for non-parametric coordinates.

mtllib tooth_paste.mtl
g default
v 0.216776 -1.252717 -0.484317
v -0.046303 -1.252717 -0.684928
v -0.309382 -1.252717 -0.484317
v -0.337485 -1.252717 0.000000
v -0.309382 -1.252717 0.484317
v -0.046303 -1.252717 0.684928
v 0.216776 -1.252717 0.484317
v 0.244879 -1.252717 0.000000
v 0.328018 1.629907 -0.427593
v 0.000045 1.629907 -0.604708
v -0.327928 1.629907 -0.427593
v -0.362963 1.629907 0.000000
v -0.327928 1.629907 0.427593
v 0.000045 1.629907 0.604708
v 0.328018 1.629907 0.427593
v 0.363053 1.629907 0.000000
v 0.145044 -2.391102 -0.507644
v 0.000045 -2.391102 -0.717917
v 0.000045 -2.391102 0.000000
v -0.144954 -2.391102 -0.507644
v -0.160443 -2.391102 0.000000
v -0.144954 -2.391102 0.507644
v 0.000045 -2.391102 0.717917
v 0.145044 -2.391102 0.507644
v 0.160534 -2.391102 0.000000
v 0.134903 1.874720 -0.116824
v 0.000045 1.874720 -0.165214
v -0.134813 1.874720 -0.116824
v -0.149219 1.874720 0.000000
v -0.134813 1.874720 0.116824
v 0.000045 1.874720 0.165214
v 0.134903 1.874720 0.116824
v 0.149309 1.874720 0.000000
v 0.134903 2.391102 -0.116824
v 0.000045 2.391102 -0.165214
v 0.000045 2.391102 0.000000
v -0.134813 2.391102 -0.116824
v -0.149219 2.391102 0.000000
v -0.134813 2.391102 0.116824
v 0.000045 2.391102 0.165214
v 0.134903 2.391102 0.116824
v 0.149309 2.391102 0.000000
v -0.000000 0.979226 -0.694066
v 0.376437 0.979226 -0.490779
v 0.416650 0.979226 0.000000
v 0.376437 0.979226 0.490779
v -0.000000 0.979226 0.694066
v -0.376437 0.979226 0.490779
v -0.416650 0.979226 0.000000
v -0.376437 0.979226 -0.490779
v 0.322273 -0.265659 0.469471
v -0.027133 -0.265659 0.663932
v -0.376539 -0.265659 0.469471
v -0.413863 -0.265659 0.000000
v -0.376539 -0.265659 -0.469471
v -0.027133 -0.265659 -0.663932
v 0.322273 -0.265659 -0.469471
v 0.359598 -0.265659 0.000000
vt 0.782952 0.136725
vt 0.750593 0.123322
vt 0.718235 0.136725
vt 0.704832 0.169084
vt 0.718235 0.201442
vt 0.750593 0.214845
vt 0.782952 0.201442
vt 0.796355 0.169084
vt 0.713984 0.214845
vt 0.723136 0.214845
vt 0.732289 0.214845
vt 0.741441 0.214845
vt 0.750593 0.214845
vt 0.759746 0.214845
vt 0.768898 0.214845
vt 0.778050 0.214845
vt 0.787203 0.214845
vt 0.713984 0.324948
vt 0.723136 0.324948
vt 0.732289 0.324948
vt 0.741441 0.324948
vt 0.750593 0.324948
vt 0.759746 0.324948
vt 0.768898 0.324948
vt 0.778050 0.324948
vt 0.787203 0.324948
vt 0.782952 0.338076
vt 0.750593 0.324673
vt 0.718235 0.338076
vt 0.704832 0.370435
vt 0.718235 0.402793
vt 0.750593 0.416196
vt 0.782952 0.402793
vt 0.796355 0.370435
vt 0.750593 0.167253
vt 0.750593 0.123322
vt 0.782952 0.136725
vt 0.718235 0.136725
vt 0.704832 0.169084
vt 0.718235 0.201442
vt 0.750593 0.214845
vt 0.782952 0.201442
vt 0.796355 0.169084
vt 0.782952 0.402793
vt 0.750593 0.416196
vt 0.718235 0.402793
vt 0.704832 0.370435
vt 0.718235 0.338076
vt 0.750593 0.324673
vt 0.782952 0.338076
vt 0.796355 0.370435
vt 0.723136 0.300095
vt 0.787203 0.300095
vt 0.713984 0.300095
vt 0.778050 0.300095
vt 0.768898 0.300095
vt 0.759746 0.300095
vt 0.750593 0.300095
vt 0.741441 0.300095
vt 0.732289 0.300095
vt 0.768898 0.252546
vt 0.759746 0.252546
vt 0.750593 0.252546
vt 0.741441 0.252546
vt 0.732289 0.252546
vt 0.723136 0.252546
vt 0.787203 0.252546
vt 0.713984 0.252546
vt 0.778050 0.252546
vt 0.932457 0.247793
vt 0.942926 0.247793
vt 0.942926 0.294068
vt 0.932457 0.294068
vt 0.953395 0.247793
vt 0.953395 0.294068
vt 0.971068 0.294406
vt 0.981537 0.294406
vt 0.981537 0.340681
vt 0.971068 0.340681
vt 0.992006 0.294406
vt 0.992006 0.340681
vt 0.969258 0.319680
vt 0.957173 0.324017
vt 0.957173 0.309211
vt 0.945088 0.319680
vt 0.970549 0.309211
vt 0.943797 0.309211
vt 0.969258 0.298742
vt 0.945088 0.298742
vt 0.957173 0.294406
vt 0.931865 0.294068
vt 0.919779 0.294068
vt 0.919779 0.247793
vt 0.931865 0.247793
vt 0.907694 0.294068
vt 0.907694 0.247793
vt 0.954069 0.247793
vt 0.966154 0.247793
vt 0.966154 0.294068
vt 0.954069 0.294068
vt 0.978240 0.247793
vt 0.978240 0.294068
vn 0.541953 -0.018970 -0.840195
vn 0.541953 -0.018970 -0.840195
vn 0.506289 -0.027638 -0.861921
vn 0.504700 -0.028018 -0.862840
vn -0.542049 0.002081 -0.840344
vn -0.542049 0.002081 -0.840344
vn -0.505577 -0.006859 -0.862755
vn -0.505790 -0.006808 -0.862630
vn -0.995078 -0.071837 -0.068260
vn -0.995078 -0.071837 -0.068260
vn -0.996638 -0.032617 -0.075152
vn -0.996636 -0.032722 -0.075134
vn -0.995078 -0.071837 0.068260
vn -0.995078 -0.071837 0.068260
vn -0.996636 -0.032722 0.075134
vn -0.996638 -0.032617 0.075152
vn -0.542049 0.002081 0.840344
vn -0.542049 0.002081 0.840344
vn -0.505790 -0.006808 0.862630
vn -0.505577 -0.006859 0.862755
vn 0.541953 -0.018970 0.840195
vn 0.541953 -0.018970 0.840195
vn 0.504700 -0.028018 0.862840
vn 0.506289 -0.027638 0.861921
vn 0.991590 -0.110102 0.068021
vn 0.991590 -0.110102 0.068021
vn 0.994452 -0.073752 0.075000
vn 0.994439 -0.073981 0.074956
vn 0.991590 -0.110102 -0.068021
vn 0.991590 -0.110102 -0.068021
vn 0.994439 -0.073981 -0.074957
vn 0.994452 -0.073752 -0.075000
vn 0.000000 -1.000000 0.000000
vn 0.000000 -1.000000 -0.000000
vn 0.000000 -1.000000 0.000000
vn 0.000000 -1.000000 0.000000
vn 0.000000 -1.000000 0.000000
vn 0.000000 -1.000000 0.000000
vn 0.000000 -1.000000 0.000000
vn 0.000000 -1.000000 0.000000
vn 0.000000 -1.000000 0.000000
vn 0.000000 1.000000 -0.000001
vn 0.000000 1.000000 0.000000
vn 0.000000 1.000000 0.000000
vn 0.000000 1.000000 0.000000
vn 0.000000 1.000000 0.000000
vn 0.000000 1.000000 0.000000
vn 0.000000 1.000000 0.000000
vn 0.000000 1.000000 0.000001
vn 0.000000 1.000000 0.000000
vn 0.709494 0.009519 -0.704648
vn 0.709494 0.009519 -0.704648
vn 0.709494 0.009519 -0.704648
vn 0.709494 0.009519 -0.704648
vn -0.708701 -0.048199 -0.703861
vn -0.708701 -0.048199 -0.703861
vn -0.708701 -0.048199 -0.703861
vn -0.708701 -0.048199 -0.703861
vn -0.988072 -0.147746 -0.043421
vn -0.988072 -0.147746 -0.043421
vn -0.988072 -0.147746 -0.043421
vn -0.988072 -0.147746 -0.043421
vn -0.988072 -0.147746 0.043421
vn -0.988072 -0.147746 0.043421
vn -0.988072 -0.147746 0.043421
vn -0.988072 -0.147746 0.043421
vn -0.708701 -0.048199 0.703861
vn -0.708701 -0.048199 0.703861
vn -0.708701 -0.048199 0.703861
vn -0.708701 -0.048199 0.703861
vn 0.709494 0.009519 0.704648
vn 0.709494 0.009519 0.704648
vn 0.709494 0.009519 0.704648
vn 0.709494 0.009519 0.704648
vn 0.996732 -0.067879 0.043802
vn 0.996732 -0.067879 0.043802
vn 0.996732 -0.067879 0.043802
vn 0.996732 -0.067879 0.043802
vn 0.996732 -0.067879 -0.043802
vn 0.996732 -0.067879 -0.043802
vn 0.996732 -0.067879 -0.043802
vn 0.996732 -0.067879 -0.043802
vn 0.237426 0.840339 -0.487297
vn 0.237426 0.840339 -0.487297
vn 0.237426 0.840339 -0.487297
vn 0.237426 0.840340 -0.487297
vn -0.237426 0.840339 -0.487297
vn -0.237426 0.840339 -0.487297
vn -0.237426 0.840339 -0.487297
vn -0.237426 0.840339 -0.487297
vn -0.745800 0.662718 -0.067730
vn -0.745800 0.662718 -0.067730
vn -0.745800 0.662718 -0.067730
vn -0.745800 0.662718 -0.067730
vn -0.745800 0.662718 0.067730
vn -0.745800 0.662718 0.067730
vn -0.745800 0.662718 0.067730
vn -0.745800 0.662718 0.067730
vn -0.237426 0.840339 0.487298
vn -0.237426 0.840339 0.487298
vn -0.237426 0.840339 0.487298
vn -0.237426 0.840339 0.487298
vn 0.237426 0.840340 0.487297
vn 0.237426 0.840339 0.487297
vn 0.237426 0.840339 0.487297
vn 0.237426 0.840339 0.487297
vn 0.745800 0.662718 0.067730
vn 0.745800 0.662718 0.067730
vn 0.745800 0.662718 0.067730
vn 0.745800 0.662718 0.067730
vn 0.745800 0.662718 -0.067730
vn 0.745800 0.662718 -0.067730
vn 0.745800 0.662718 -0.067730
vn 0.745800 0.662718 -0.067730
vn 0.337738 0.000000 -0.941240
vn 0.337738 0.000000 -0.941240
vn 0.337738 0.000000 -0.941240
vn 0.337738 0.000000 -0.941240
vn -0.337738 0.000000 -0.941240
vn -0.337738 0.000000 -0.941240
vn -0.337738 0.000000 -0.941240
vn -0.337738 0.000000 -0.941240
vn -0.992483 0.000000 -0.122387
vn -0.992483 0.000000 -0.122387
vn -0.992483 0.000000 -0.122387
vn -0.992483 0.000000 -0.122387
vn -0.992483 0.000000 0.122387
vn -0.992483 0.000000 0.122387
vn -0.992483 0.000000 0.122387
vn -0.992483 0.000000 0.122387
vn -0.337738 0.000000 0.941240
vn -0.337738 0.000000 0.941240
vn -0.337738 0.000000 0.941240
vn -0.337738 0.000000 0.941240
vn 0.337738 0.000000 0.941240
vn 0.337738 0.000000 0.941240
vn 0.337738 0.000000 0.941240
vn 0.337738 0.000000 0.941240
vn 0.992483 0.000000 0.122387
vn 0.992483 0.000000 0.122387
vn 0.992483 0.000000 0.122387
vn 0.992483 0.000000 0.122387
vn 0.992482 0.000000 -0.122387
vn 0.992482 0.000000 -0.122387
vn 0.992482 0.000000 -0.122387
vn 0.992482 0.000000 -0.122387
vn 0.478662 0.018349 -0.877808
vn 0.478742 0.016499 -0.877801
vn 0.471739 0.119930 -0.873544
vn 0.471739 0.119930 -0.873544
vn 0.996720 -0.002834 -0.080876
vn 0.996716 -0.004197 -0.080863
vn 0.993318 0.081819 -0.081388
vn 0.993319 0.081819 -0.081388
vn 0.996716 -0.004197 0.080863
vn 0.996720 -0.002834 0.080876
vn 0.993319 0.081819 0.081388
vn 0.993318 0.081819 0.081388
vn 0.478742 0.016499 0.877801
vn 0.478662 0.018349 0.877808
vn 0.471739 0.119930 0.873544
vn 0.471739 0.119930 0.873544
vn -0.478534 0.031505 0.877504
vn -0.478542 0.031366 0.877504
vn -0.471736 0.119995 0.873537
vn -0.471736 0.119995 0.873537
vn -0.996383 0.026146 0.080848
vn -0.996405 0.025333 0.080838
vn -0.993307 0.081956 0.081387
vn -0.993307 0.081956 0.081387
vn -0.996405 0.025333 -0.080838
vn -0.996383 0.026146 -0.080848
vn -0.993307 0.081956 -0.081387
vn -0.993307 0.081956 -0.081387
vn -0.478542 0.031366 -0.877504
vn -0.478534 0.031505 -0.877504
vn -0.471736 0.119995 -0.873537
vn -0.471736 0.119995 -0.873537
s 1
g tooth_pastte
usemtl lambert2SG
f 1/9/1 2/10/2 56/66/3 57/68/4
s 2
f 2/10/5 3/11/6 55/65/7 56/66/8
s 3
f 3/11/9 4/12/10 54/64/11 55/65/12
s 4
f 4/12/13 5/13/14 53/63/15 54/64/16
s 5
f 5/13/17 6/14/18 52/62/19 53/63/20
s 6
f 6/14/21 7/15/22 51/61/23 52/62/24
s 7
f 7/15/25 8/16/26 58/69/27 51/61/28
s 8
f 8/16/29 1/17/30 57/67/31 58/69/32
s 9
f 18/36/33 17/37/34 19/35/35
f 20/38/36 18/36/33 19/35/35
f 21/39/37 20/38/36 19/35/35
f 22/40/38 21/39/37 19/35/35
f 23/41/39 22/40/38 19/35/35
f 24/42/40 23/41/39 19/35/35
f 25/43/41 24/42/40 19/35/35
f 17/37/34 25/43/41 19/35/35
s 10
f 34/82/42 35/83/43 36/84/44
f 35/83/43 37/85/45 36/84/44
f 37/85/45 38/87/46 36/84/44
f 38/87/46 39/89/47 36/84/44
f 39/89/47 40/90/48 36/84/44
f 40/90/48 41/88/49 36/84/44
f 41/88/49 42/86/50 36/84/44
f 42/86/50 34/82/42 36/84/44
s off
f 2/2/51 1/1/52 17/37/53 18/36/54
f 3/3/55 2/2/56 18/36/57 20/38/58
f 4/4/59 3/3/60 20/38/61 21/39/62
f 5/5/63 4/4/64 21/39/65 22/40/66
f 6/6/67 5/5/68 22/40/69 23/41/70
f 7/7/71 6/6/72 23/41/73 24/42/74
f 8/8/75 7/7/76 24/42/77 25/43/78
f 1/1/79 8/8/80 25/43/81 17/37/82
f 9/33/83 10/32/84 27/45/85 26/44/86
f 10/32/87 11/31/88 28/46/89 27/45/90
f 11/31/91 12/30/92 29/47/93 28/46/94
f 12/30/95 13/29/96 30/48/97 29/47/98
f 13/29/99 14/28/100 31/49/101 30/48/102
f 14/28/103 15/27/104 32/50/105 31/49/106
f 15/27/107 16/34/108 33/51/109 32/50/110
f 16/34/111 9/33/112 26/44/113 33/51/114
f 26/91/115 27/92/116 35/93/117 34/94/118
f 27/92/119 28/95/120 37/96/121 35/93/122
f 28/70/123 29/71/124 38/72/125 37/73/126
f 29/71/127 30/74/128 39/75/129 38/72/130
f 30/97/131 31/98/132 40/99/133 39/100/134
f 31/98/135 32/101/136 41/102/137 40/99/138
f 32/76/139 33/77/140 42/78/141 41/79/142
f 33/77/143 26/80/144 34/81/145 42/78/146
s 1
f 44/54/147 43/52/148 10/19/149 9/18/150
s 8
f 45/55/151 44/53/152 9/26/153 16/25/154
s 7
f 46/56/155 45/55/156 16/25/157 15/24/158
s 6
f 47/57/159 46/56/160 15/24/161 14/23/162
s 5
f 48/58/163 47/57/164 14/23/165 13/22/166
s 4
f 49/59/167 48/58/168 13/22/169 12/21/170
s 3
f 50/60/171 49/59/172 12/21/173 11/20/174
s 2
f 43/52/175 50/60/176 11/20/177 10/19/178
s 6
f 52/62/24 51/61/23 46/56/160 47/57/159
s 5
f 53/63/20 52/62/19 47/57/164 48/58/163
s 4
f 54/64/16 53/63/15 48/58/168 49/59/167
s 3
f 55/65/12 54/64/11 49/59/172 50/60/171
s 2
f 56/66/8 55/65/7 50/60/176 43/52/175
s 1
f 57/68/4 56/66/3 43/52/148 44/54/147
s 8
f 58/69/32 57/67/31 44/53/152 45/55/151
s 7
f 51/61/28 58/69/27 45/55/156 46/56/155
